<?xml version="1.0" standalone="no"?><!DOCTYPE svg PUBLIC "-//W3C//DTD SVG 1.1//EN" "http://www.w3.org/Graphics/SVG/1.1/DTD/svg11.dtd"><svg t="1568612816406" class="icon" viewBox="0 0 1024 1024" version="1.1" xmlns="http://www.w3.org/2000/svg" p-id="4130" xmlns:xlink="http://www.w3.org/1999/xlink" width="200" height="200"><defs><style type="text/css"></style></defs><path d="M799.829093 309.333929A180.607849 180.607849 0 0 0 671.146534 256.00064c-48.597293 0-94.293255 18.943984-128.682559 53.333289L490.496018 361.301886 438.613394 309.333929A180.607849 180.607849 0 0 0 309.888168 256.00064c-48.597293 0-94.293255 18.943984-128.682559 53.333289a182.186515 182.186515 0 0 0 0 257.365119l293.461089 294.911754a21.205316 21.205316 0 0 0 30.122641 0.085333l140.543883-139.007884a21.333316 21.333316 0 0 0-29.994641-30.293308l-125.397229 124.074563-278.570435-279.8931a139.519884 139.519884 0 0 1 0-197.077169c52.650623-52.650623 144.341213-52.650623 197.034503 0L475.434697 406.613848a21.333316 21.333316 0 0 0 30.165308 0l67.029278-67.029278c52.693289-52.693289 144.38388-52.693289 197.034502 0 26.367978 26.325311 40.831966 61.354616 40.831966 98.474585 0 37.205302-14.463988 72.19194-40.831966 98.559918l-33.237305 33.237305a21.333316 21.333316 0 1 0 30.165308 30.165309l33.279972-33.279973a180.693183 180.693183 0 0 0 53.333289-128.682559c0-48.597293-18.943984-94.293255-53.333289-128.682559" p-id="4131"></path></svg>