<?xml version="1.0" standalone="no"?><!DOCTYPE svg PUBLIC "-//W3C//DTD SVG 1.1//EN" "http://www.w3.org/Graphics/SVG/1.1/DTD/svg11.dtd"><svg t="1568258343801" class="icon" viewBox="0 0 1024 1024" version="1.1" xmlns="http://www.w3.org/2000/svg" p-id="1921" xmlns:xlink="http://www.w3.org/1999/xlink" width="200" height="200"><defs><style type="text/css"></style></defs><path d="M448.853333 899.413333l-409.6-409.6L472.746667 56.32l409.6 409.6-433.493334 433.493333z m-314.026666-409.6l314.026666 314.026667 337.92-337.92L472.746667 151.893333 134.826667 489.813333z" fill="#0f4f8e" p-id="1922"></path><path d="M17.066667 238.933333h460.8v68.266667H17.066667zM85.333333 443.733333h750.933334v68.266667H85.333333z" fill="#0f4f8e" p-id="1923"></path><path d="M887.466667 972.8c-66.56 0-119.466667-52.906667-119.466667-119.466667 0-54.613333 71.68-148.48 92.16-175.786666l27.306667-32.426667 27.306666 32.426667c22.186667 27.306667 92.16 119.466667 92.16 175.786666 0 66.56-52.906667 119.466667-119.466666 119.466667z m0-216.746667c-27.306667 39.253333-51.2 80.213333-51.2 97.28 0 29.013333 22.186667 51.2 51.2 51.2s51.2-22.186667 51.2-51.2c0-15.36-23.893333-58.026667-51.2-97.28z" fill="#1989fa" p-id="1924"></path></svg>