<?xml version="1.0" standalone="no"?><!DOCTYPE svg PUBLIC "-//W3C//DTD SVG 1.1//EN" "http://www.w3.org/Graphics/SVG/1.1/DTD/svg11.dtd"><svg t="1568612922130" class="icon" viewBox="0 0 1024 1024" version="1.1" xmlns="http://www.w3.org/2000/svg" p-id="3653" xmlns:xlink="http://www.w3.org/1999/xlink" width="200" height="200"><defs><style type="text/css"></style></defs><path d="M871.765333 572.544a20.309333 20.309333 0 0 0-23.381333 16.298667A320.597333 320.597333 0 0 1 532.181333 853.333333C369.28 853.333333 234.666667 731.306667 214.058667 573.952h177.834666c9.301333 0 17.493333-5.973333 20.309334-14.805333l30.122666-94.293334 48.725334 221.226667a21.333333 21.333333 0 0 0 20.181333 16.768h0.64a21.376 21.376 0 0 0 20.48-15.488l45.909333-160.426667 18.773334 35.669334a21.248 21.248 0 0 0 18.858666 11.349333h85.333334a21.333333 21.333333 0 1 0 0-42.666667h-72.448l-37.546667-71.296a20.906667 20.906667 0 0 0-21.077333-11.221333 21.248 21.248 0 0 0-18.346667 15.317333L514.56 594.517333l-47.616-216.32a21.333333 21.333333 0 0 0-19.84-16.64c-9.984-1.28-18.432 5.546667-21.333333 14.762667l-49.493334 154.965333H211.114667A321.066667 321.066667 0 0 1 532.181333 210.986667 321.194667 321.194667 0 0 1 825.6 401.493333c4.522667 10.197333 16.469333 14.634667 26.624 10.197334a19.797333 19.797333 0 0 0 9.770667-9.856 19.626667 19.626667 0 0 0 3.2-10.24V272.896a20.181333 20.181333 0 0 0-40.362667 0V320.853333A361.002667 361.002667 0 0 0 532.181333 170.666667 361.386667 361.386667 0 0 0 170.666667 532.181333c0 199.338667 162.133333 361.472 361.514666 361.472a360.917333 360.917333 0 0 0 355.84-297.728 20.138667 20.138667 0 0 0-16.256-23.381333" p-id="3654"></path></svg>