<?xml version="1.0" standalone="no"?><!DOCTYPE svg PUBLIC "-//W3C//DTD SVG 1.1//EN" "http://www.w3.org/Graphics/SVG/1.1/DTD/svg11.dtd"><svg t="1568619378184" class="icon" viewBox="0 0 1024 1024" version="1.1" xmlns="http://www.w3.org/2000/svg" p-id="1705" xmlns:xlink="http://www.w3.org/1999/xlink" width="200" height="200"><defs><style type="text/css"></style></defs><path d="M822.496 473.15l52.047 29.293C869.476 306.565 709.1 149.333 512 149.333c-200.295 0-362.667 162.372-362.667 362.667 0 200.295 162.372 362.667 362.667 362.667 122.536 0 234.641-61.198 301.574-161.148 9.834-14.684 29.71-18.617 44.395-8.783 14.684 9.834 18.617 29.71 8.783 44.394C788.06 866.638 656.116 938.667 512 938.667 276.359 938.667 85.333 747.64 85.333 512 85.333 276.359 276.36 85.333 512 85.333c235.641 0 426.667 191.026 426.667 426.667 0 10.952-0.847 26.359-2.522 46.533-1.93 23.237-27.266 36.675-47.586 25.238l-97.453-54.847c-15.402-8.668-20.86-28.18-12.192-43.582 8.668-15.401 28.18-20.86 43.582-12.192zM329.373 649.373L480 498.745V320c0-17.673 14.327-32 32-32 17.673 0 32 14.327 32 32v192a32 32 0 0 1-9.373 22.627l-160 160c-12.496 12.497-32.758 12.497-45.254 0-12.497-12.496-12.497-32.758 0-45.254z" p-id="1706"></path></svg>